<svg width="355" height="180" viewBox="0 0 355 180" fill="none" xmlns="http://www.w3.org/2000/svg">
<g clip-path="url(#clip0_301_2)">
<path d="M123.448 0H148.86L177.618 71.873V64.3553C177.328 48.8677 174.679 33.5147 169.761 18.8259L163.144 0H179.841V77.4106H154.429L125.682 5.52706V13.0553C125.968 28.5424 128.614 43.8953 133.528 58.5847L140.167 77.3894H123.448V0Z" fill="black"/>
<path d="M212.94 21.0071C230.739 21.0071 242.248 29.1918 242.248 49.7647C242.248 70.3377 230.739 78.5118 212.94 78.5118C195.141 78.5118 183.642 70.3271 183.642 49.7647C183.642 29.2024 195.141 21.0071 212.94 21.0071ZM213.046 76.2988C215.598 76.2988 217.916 73.7577 217.916 50.4212C217.916 25.0094 215.153 23.22 213.046 23.22C210.939 23.22 207.964 24.9883 207.964 49.4365C207.964 74.4247 210.928 76.2988 213.046 76.2988Z" fill="black"/>
<path d="M272.139 22.1188H292.373V39.8117H274.68L271.027 24.3529C268.708 24.3529 267.713 27.5294 267.713 30.547C267.713 45.1376 292.373 40.8282 292.373 59.7388C292.373 73.7788 278.661 77.4317 265.161 77.4317H244.927V59.7176H262.62L266.273 75.1764C268.592 75.1764 269.587 72.0741 269.587 68.9823C269.587 53.5023 244.927 61.687 244.927 41.1141C244.927 25.7611 258.639 22.1188 272.139 22.1188Z" fill="black"/>
<path d="M205.179 107.598V140.728C205.179 148.002 205.909 153.508 208.408 153.508C210.589 153.508 213.491 149.146 213.491 141.565V107.598H236.34V159.533H216.614L213.914 150.501C211.214 156.854 205.285 160.571 197.704 160.571C187.835 160.571 182.329 154.218 182.329 141.978V107.598H205.179Z" fill="black"/>
<path d="M239.389 146.658C239.389 137.308 247.182 131.485 259.232 131.485H269.513V127.122C269.513 123.808 270.138 109.673 264.325 109.673L260.894 129.409H244.271V107.598H265.362C281.467 107.598 292.373 115.285 292.373 132.946V159.533H272.636L270.349 151.952C268.369 157.976 263.996 160.571 256.638 160.571C245.933 160.571 239.389 155.171 239.389 146.658ZM265.574 154.345C267.745 154.345 269.407 149.982 269.513 143.333V133.56H267.745C265.151 133.56 262.249 137.721 262.249 145.207C262.249 149.877 263.393 154.345 265.574 154.345Z" fill="black"/>
<path d="M114.575 77.7705C102.388 35.6188 101.001 30.3458 100.165 28.6305C100.113 28.5356 100.036 28.4563 99.9431 28.4011C99.8499 28.3459 99.7436 28.3168 99.6354 28.3168C99.5271 28.3168 99.4208 28.3459 99.3277 28.4011C99.2345 28.4563 99.1579 28.5356 99.1059 28.6305L89.6507 45.8046L89.7142 46.7682C91.7197 49.5834 92.6532 53.0227 92.3463 56.4656C92.0394 59.9086 90.5122 63.1285 88.0403 65.5446C85.5684 67.9607 82.3144 69.414 78.8654 69.6422C75.4164 69.8704 71.9993 68.8587 69.2305 66.7893C66.4618 64.72 64.5237 61.7294 63.7657 58.357C63.0078 54.9845 63.48 51.4522 65.0971 48.3972C66.7142 45.3422 69.3697 42.9657 72.5848 41.6962C75.7998 40.4267 79.3626 40.348 82.6306 41.4741L75.7377 53.9788C75.5841 54.2569 75.4867 54.5625 75.4512 54.8782C75.4156 55.1939 75.4426 55.5136 75.5306 55.8189C75.6186 56.1241 75.7659 56.4091 75.964 56.6575C76.1622 56.9058 76.4073 57.1128 76.6853 57.2664C76.9634 57.4201 77.2691 57.5174 77.5848 57.553C77.9005 57.5885 78.2202 57.5615 78.5254 57.4735C78.8307 57.3855 79.1157 57.2382 79.3641 57.0401C79.6124 56.842 79.8194 56.5969 79.973 56.3188L106.359 8.44935C106.669 7.88772 106.744 7.22583 106.566 6.60927C106.388 5.99272 105.973 5.47202 105.411 5.16171C104.85 4.85141 104.188 4.77692 103.571 4.95464C102.955 5.13235 102.434 5.54773 102.124 6.10936L98.4283 12.7058C97.1168 15.0817 95.3493 17.1755 93.2271 18.8671C91.1049 20.5586 88.6698 21.8148 86.0612 22.5635H85.9871L38.7742 36.2117C35.7007 37.1033 33.1071 39.179 31.5636 41.9823L7.30594 85.9552C5.32594 89.587 -4.34112 108.191 2.27653 131.008C5.01224 140.319 10.0187 148.804 16.8459 155.7C21.264 160.201 26.3278 164.02 31.8706 167.029C32.7231 167.511 33.5996 167.949 34.4965 168.342C35.2033 166.514 35.6765 164.603 35.9048 162.656C36.0226 160.556 35.6605 158.455 34.8459 156.515C33.4377 153.286 30.8648 150.734 28.493 148.14C23.1989 142.306 18.9636 135.614 17.8095 127.652C17.153 123.014 18.233 118.122 19.7471 113.771C23.0612 104.156 28.4718 95.2941 33.5118 86.4952C35.7248 82.5988 37.9589 78.7235 40.1718 74.8482C40.8127 73.8048 41.8346 73.0518 43.021 72.7489C44.2074 72.4459 45.4652 72.6168 46.5279 73.2252C47.5905 73.8336 48.3746 74.8318 48.7139 76.0083C49.0533 77.1849 48.9213 78.4473 48.3459 79.5282L34.3271 104.04C33.9969 104.578 33.778 105.176 33.6835 105.8C33.5889 106.424 33.6207 107.06 33.7768 107.672C33.9329 108.283 34.2102 108.857 34.5922 109.359C34.9743 109.861 35.4533 110.281 36.0009 110.595C36.5485 110.908 37.1535 111.109 37.78 111.184C38.4064 111.259 39.0416 111.208 39.6479 111.033C40.2542 110.858 40.8191 110.563 41.3093 110.166C41.7994 109.769 42.2047 109.277 42.5012 108.72L56.5201 84.1976C57.1609 83.1542 58.1828 82.4013 59.3692 82.0983C60.5557 81.7953 61.8134 81.9662 62.8761 82.5746C63.9388 83.183 64.7228 84.1812 65.0622 85.3577C65.4015 86.5343 65.2696 87.7967 64.6942 88.8776L50.6648 113.389C50.0894 114.47 49.9574 115.733 50.2968 116.909C50.6361 118.086 51.4202 119.084 52.4828 119.692C53.5455 120.301 54.8033 120.472 55.9897 120.169C57.1761 119.866 58.198 119.113 58.8389 118.069L72.8683 93.547C73.5092 92.5036 74.531 91.7507 75.7175 91.4477C76.9039 91.1448 78.1617 91.3156 79.2243 91.924C80.287 92.5324 81.071 93.5306 81.4104 94.7071C81.7498 95.8837 81.6178 97.1461 81.0424 98.227C79.6659 100.631 80.2906 99.5294 80.7248 98.767L73.1118 112.076C67.6377 121.606 63.0106 132.903 53.9895 139.786C51.4906 141.692 48.6318 143.089 46.2918 145.196C45.0303 146.369 44.0604 147.82 43.4592 149.434C42.8581 151.048 42.6424 152.781 42.8295 154.493C43.0268 156.634 43.3806 158.757 43.8883 160.846C44.427 163.415 44.3727 166.073 43.7295 168.618C43.3853 169.99 43.5237 171.438 44.1214 172.721C44.719 174.003 45.7397 175.04 47.0118 175.659C50.2515 177.397 53.9559 178.071 57.6001 177.586C59.7746 177.195 61.8356 176.328 63.6352 175.047C65.4348 173.765 66.9283 172.101 68.0083 170.174L113.538 87.5011C114.345 86.0283 114.853 84.41 115.031 82.7397C115.209 81.0695 115.054 79.3805 114.575 77.7705Z" fill="black"/>
<path d="M140.845 162L147.282 160.549C164.531 160.549 179.492 151.825 179.492 123.152C179.492 94.4788 164.531 85.7646 147.282 85.7646C130.034 85.7646 115.083 94.4894 115.083 123.152C115.083 147.981 126.201 157.849 140.432 160.031L128.276 162.836C127.038 163.048 125.788 163.355 124.539 163.673V165.791C124.645 165.791 124.74 165.791 124.74 165.685H125.375C125.375 165.579 125.471 165.579 125.576 165.579H125.682C127.076 165.296 128.495 165.157 129.918 165.166C144.572 165.166 151.634 179.989 169.391 179.989L177.385 163.683C174.375 164.268 171.313 164.545 168.247 164.509C159.236 164.52 150.3 162.445 140.845 162ZM133.634 131.114C137.253 134.648 142.071 136.69 147.128 136.831C152.185 136.972 157.109 135.203 160.92 131.876C158.368 139.023 153.318 144 147.399 144C141.332 144 136.101 138.706 133.634 131.114Z" fill="black"/>
<path d="M337.733 21.0071C329.993 21.0071 324.021 24.66 320.929 30.8541V0H316.885C315.408 0.000813583 313.991 0.587178 312.946 1.63058L298.228 16.3376C297.186 17.3882 296.6 18.8073 296.598 20.2871V77.4635H320.951V41.2941C320.951 33.2153 324.042 28.5882 326.361 28.5882C329.019 28.5882 329.792 34.4541 329.792 42.1941V84.3353V116.1C327.801 110.128 323.926 105.374 316.631 105.374C307.006 105.374 295.454 113.559 295.454 134.121C295.454 154.684 306.953 162.889 316.461 162.889C324.095 162.889 327.971 157.691 329.961 151.38L333.064 161.778H345.875C346.952 161.779 348.019 161.568 349.015 161.157C350.01 160.746 350.915 160.142 351.677 159.381C352.439 158.62 353.044 157.716 353.456 156.721C353.869 155.726 354.081 154.659 354.081 153.582V95.4423V40.807C354.092 27.7518 348.236 21.0071 337.733 21.0071ZM329.749 136.694C329.527 147.759 326.658 156.166 324.222 156.166C322.105 156.166 319.796 149.199 319.796 134.375C319.796 118.112 322.56 111.918 324.773 111.918C327.208 111.918 329.527 119.329 329.749 130.616V136.694Z" fill="black"/>
</g>
<defs>
<clipPath id="clip0_301_2">
<rect width="354.102" height="180" fill="white"/>
</clipPath>
</defs>
</svg>
